<svg width="194" height="214" xmlns="http://www.w3.org/2000/svg" version="1.1" xml:space="preserve">
 <g>
  <title>Layer 1</title>
  <g class="st4" opacity="0.8" id="svg_25">
   <polygon class="st3" points="120.0000057220459,61.39999961853027 120.0000057220459,41.10000038146973 138.79999351501465,30.600000381469727 156.7000026702881,40.60000038146973 156.7000026702881,62.59999656677246 138.39999961853027,70.99999809265137 " fill="#16A1A2" id="svg_26"/>
  </g>
  <g class="st5" opacity="0.3" id="svg_27">
   <polygon class="st3" points="138.39999961853027,70.99999809265137 138.39999961853027,49.99999809265137 156.7000026702881,40.60000038146973 174.89999961853027,49.69999885559082 175.09999656677246,70.99999809265137 156.79999351501465,80.70000267028809 " fill="#16A1A2" id="svg_28"/>
  </g>
  <g class="st6" opacity="0.5" id="svg_29">
   <polygon class="st3" points="156.7000026702881,62.59999656677246 156.79999351501465,40.60000038146973 175.2000026702881,30.499998092651367 194.2000026702881,41.10000038146973 194.2000026702881,61.30000114440918 175.09999656677246,70.99999809265137 " fill="#16A1A2" id="svg_30"/>
  </g>
  <g class="st7" opacity="0.45" id="svg_31">
   <polygon class="st3" points="120.0000057220459,41.10000038146973 120.0000057220459,20.100000381469727 138.79999351501465,10.299999237060547 156.7000026702881,19.600000381469727 156.7000026702881,40.49999809265137 138.39999961853027,49.99999809265137 " fill="#16A1A2" id="svg_32"/>
  </g>
  <g class="st8" opacity="0.6" id="svg_33">
   <polygon class="st3" points="156.7000026702881,40.60000038146973 156.7000026702881,19.600000381469727 175.2000026702881,10 194.2000026702881,19.999998092651367 194.2000026702881,41.10000038146973 174.89999961853027,49.69999885559082 " fill="#16A1A2" id="svg_34"/>
  </g>
  <g id="svg_35">
   <polygon class="st3" points="138.79999351501465,30.600000381469727 138.79999351501465,10.299999237060547 157.29999351501465,0 175.2000026702881,10 175.2000026702881,30.499998092651367 156.7000026702881,40.60000038146973 " fill="#16A1A2" id="svg_36"/>
  </g>
  <g class="st4" opacity="0.8" id="svg_37">
   <polygon class="st1" points="39.30000114440918,61.39999961853027 39.30000114440918,41.10000038146973 58.200002670288086,30.600000381469727 76.09999656677246,40.60000038146973 76.09999656677246,62.59999656677246 57.700002670288086,70.99999809265137 " fill="#DF3978" id="svg_38"/>
  </g>
  <g class="st5" opacity="0.3" id="svg_39">
   <polygon class="st1" points="57.700002670288086,70.99999809265137 57.700002670288086,49.99999809265137 76.09999656677246,40.60000038146973 94.30000114440918,49.69999885559082 94.39999961853027,70.99999809265137 76.09999656677246,80.70000267028809 " fill="#DF3978" id="svg_40"/>
  </g>
  <g class="st6" opacity="0.5" id="svg_41">
   <polygon class="st1" points="76.09999656677246,62.59999656677246 76.09999656677246,40.60000038146973 94.59999656677246,30.499998092651367 113.59999656677246,41.10000038146973 113.59999656677246,61.30000114440918 94.39999961853027,70.99999809265137 " fill="#DF3978" id="svg_42"/>
  </g>
  <g class="st7" opacity="0.45" id="svg_43">
   <polygon class="st1" points="39.30000114440918,41.10000038146973 39.30000114440918,20.100000381469727 58.200002670288086,10.299999237060547 75.99999809265137,19.600000381469727 76.09999656677246,40.49999809265137 57.700002670288086,49.99999809265137 " fill="#DF3978" id="svg_44"/>
  </g>
  <g class="st8" opacity="0.6" id="svg_45">
   <polygon class="st1" points="76.09999656677246,40.60000038146973 75.99999809265137,19.600000381469727 94.59999656677246,10 113.5000057220459,19.999998092651367 113.59999656677246,41.10000038146973 94.30000114440918,49.69999885559082 " fill="#DF3978" id="svg_46"/>
  </g>
  <g id="svg_47">
   <polygon class="st1" points="58.200002670288086,30.600000381469727 58.200002670288086,10.299999237060547 76.70000267028809,0 94.59999656677246,10 94.59999656677246,30.499998092651367 76.09999656677246,40.60000038146973 " fill="#DF3978" id="svg_48"/>
  </g>
  <g class="st4" opacity="0.8" id="svg_49">
   <polygon class="st1" points="120.0000057220459,195.0000057220459 120.0000057220459,174.7000026702881 138.79999351501465,164.2000026702881 156.7000026702881,174.2000026702881 156.7000026702881,196.09999656677246 138.39999961853027,204.59999656677246 " fill="#DF3978" id="svg_50"/>
  </g>
  <g class="st5" opacity="0.3" id="svg_51">
   <polygon class="st1" points="138.39999961853027,204.59999656677246 138.39999961853027,183.59999656677246 156.7000026702881,174.09999656677246 174.89999961853027,183.29999351501465 175.09999656677246,204.59999656677246 156.79999351501465,214.29999351501465 " fill="#DF3978" id="svg_52"/>
  </g>
  <g class="st6" opacity="0.5" id="svg_53">
   <polygon class="st1" points="156.7000026702881,196.09999656677246 156.79999351501465,174.2000026702881 175.2000026702881,164.0000057220459 194.2000026702881,174.7000026702881 194.2000026702881,194.89999961853027 175.09999656677246,204.59999656677246 " fill="#DF3978" id="svg_54"/>
  </g>
  <g class="st7" opacity="0.45" id="svg_55">
   <polygon class="st1" points="120.0000057220459,174.7000026702881 120.0000057220459,153.7000026702881 138.79999351501465,143.89999961853027 156.7000026702881,153.09999656677246 156.7000026702881,174.09999656677246 138.39999961853027,183.59999656677246 " fill="#DF3978" id="svg_56"/>
  </g>
  <g class="st8" opacity="0.6" id="svg_57">
   <polygon class="st1" points="156.7000026702881,174.2000026702881 156.7000026702881,153.09999656677246 175.2000026702881,143.5000057220459 194.2000026702881,153.59999656677246 194.2000026702881,174.7000026702881 174.89999961853027,183.29999351501465 " fill="#DF3978" id="svg_58"/>
  </g>
  <g id="svg_59">
   <polygon class="st1" points="138.79999351501465,164.2000026702881 138.79999351501465,143.89999961853027 157.29999351501465,133.59999656677246 175.2000026702881,143.5000057220459 175.2000026702881,164.0000057220459 156.7000026702881,174.2000026702881 " fill="#DF3978" id="svg_60"/>
  </g>
  <g class="st4" opacity="0.8" id="svg_61">
   <polygon class="st3" points="39.30000114440918,195.0000057220459 39.30000114440918,174.7000026702881 58.200002670288086,164.2000026702881 76.09999656677246,174.2000026702881 76.09999656677246,196.09999656677246 57.700002670288086,204.59999656677246 " fill="#16A1A2" id="svg_62"/>
  </g>
  <g class="st5" opacity="0.3" id="svg_63">
   <polygon class="st3" points="57.700002670288086,204.59999656677246 57.700002670288086,183.59999656677246 76.09999656677246,174.09999656677246 94.30000114440918,183.29999351501465 94.39999961853027,204.59999656677246 76.09999656677246,214.29999351501465 " fill="#16A1A2" id="svg_64"/>
  </g>
  <g class="st6" opacity="0.5" id="svg_65">
   <polygon class="st3" points="76.09999656677246,196.09999656677246 76.09999656677246,174.2000026702881 94.59999656677246,164.0000057220459 113.59999656677246,174.7000026702881 113.59999656677246,194.89999961853027 94.39999961853027,204.59999656677246 " fill="#16A1A2" id="svg_66"/>
  </g>
  <g class="st7" opacity="0.45" id="svg_67">
   <polygon class="st3" points="39.30000114440918,174.7000026702881 39.30000114440918,153.7000026702881 58.200002670288086,143.89999961853027 75.99999809265137,153.09999656677246 76.09999656677246,174.09999656677246 57.700002670288086,183.59999656677246 " fill="#16A1A2" id="svg_68"/>
  </g>
  <g class="st8" opacity="0.6" id="svg_69">
   <polygon class="st3" points="76.09999656677246,174.2000026702881 75.99999809265137,153.09999656677246 94.59999656677246,143.5000057220459 113.5000057220459,153.59999656677246 113.59999656677246,174.7000026702881 94.30000114440918,183.29999351501465 " fill="#16A1A2" id="svg_70"/>
  </g>
  <g id="svg_71">
   <polygon class="st3" points="58.200002670288086,164.2000026702881 58.200002670288086,143.89999961853027 76.70000267028809,133.59999656677246 94.59999656677246,143.5000057220459 94.59999656677246,164.0000057220459 76.09999656677246,174.2000026702881 " fill="#16A1A2" id="svg_72"/>
  </g>
  <g class="st4" opacity="0.8" id="svg_73">
   <polygon class="st2" points="0,128.29999351501465 0,108.09999656677246 18.80000114440918,97.59999656677246 36.69999885559082,107.59999656677246 36.69999885559082,129.5000057220459 18.30000114440918,138.0000057220459 " fill="#E35F1D" id="svg_74"/>
  </g>
  <g class="st5" opacity="0.3" id="svg_75">
   <polygon class="st2" points="18.30000114440918,138.0000057220459 18.30000114440918,117.0000057220459 36.69999885559082,107.49999809265137 54.89999961853027,116.70000267028809 55.09999656677246,138.0000057220459 36.69999885559082,147.7000026702881 " fill="#E35F1D" id="svg_76"/>
  </g>
  <g class="st6" opacity="0.5" id="svg_77">
   <polygon class="st2" points="36.69999885559082,129.5000057220459 36.69999885559082,107.49999809265137 55.200002670288086,97.39999961853027 74.20000267028809,107.99999809265137 74.20000267028809,128.29999351501465 55.09999656677246,138.0000057220459 " fill="#E35F1D" id="svg_78"/>
  </g>
  <g class="st7" opacity="0.45" id="svg_79">
   <polygon class="st2" points="0,108.09999656677246 0,87.09999656677246 18.80000114440918,77.30000114440918 36.60000038146973,86.49999809265137 36.69999885559082,107.49999809265137 18.30000114440918,117.0000057220459 " fill="#E35F1D" id="svg_80"/>
  </g>
  <g class="st8" opacity="0.6" id="svg_81">
   <polygon class="st2" points="36.69999885559082,107.49999809265137 36.60000038146973,86.49999809265137 55.200002670288086,76.89999961853027 74.09999656677246,86.99999809265137 74.20000267028809,107.99999809265137 54.89999961853027,116.70000267028809 " fill="#E35F1D" id="svg_82"/>
  </g>
  <g id="svg_83">
   <polygon class="st2" points="18.80000114440918,97.59999656677246 18.80000114440918,77.30000114440918 37.30000114440918,66.89999961853027 55.200002670288086,76.89999961853027 55.200002670288086,97.39999961853027 36.69999885559082,107.49999809265137 " fill="#E35F1D" id="svg_84"/>
  </g>
 </g>

</svg>